<svg id="Layer_2" data-name="Layer 2" xmlns="http://www.w3.org/2000/svg" viewBox="0 0 1237 326.25"><defs><style>.cls-1{fill:#fff;}.cls-2{fill:none;stroke:#fff;stroke-miterlimit:10;stroke-width:3px;}.cls-3{font-size:34px;}.cls-3,.cls-6{font-family:TwCenMT-Bold, Tw Cen MT;font-weight:700;}.cls-4{font-size:27px;font-family:TwCenMT-Regular, Tw Cen MT;font-weight:400;}.cls-5{font-family:TwCenMT-CondensedExtraBold, Tw Cen MT Condensed Extra Bold;font-weight:800;}.cls-6{font-size:40px;}.cls-7{letter-spacing:-0.03em;}</style></defs><circle class="cls-1" cx="94.5" cy="231.75" r="87"/><circle class="cls-2" cx="94.5" cy="231.75" r="93"/><text id="SMALL_12_6.99" data-name="SMALL 12”  $6.99" class="cls-3" transform="translate(46.74 196.15)">SMALL<tspan x="21.57" y="40.8">12”</tspan><tspan class="cls-4"><tspan x="11.7" y="99.6">$6.99</tspan><tspan class="cls-5" x="77.21" y="99.6"> </tspan></tspan></text><circle class="cls-1" cx="374.96" cy="205.25" r="111.79"/><circle class="cls-2" cx="374.96" cy="205.25" r="119.5"/><text id="SMALL_12_6.99-2" data-name="SMALL 12”  $6.99" class="cls-3" transform="translate(313.89 165.65)">MEDIUM<tspan x="34.88" y="40.8">14”</tspan><tspan class="cls-4"><tspan x="25.01" y="117.6">$9.99</tspan><tspan class="cls-5" x="90.51" y="117.6"> </tspan></tspan></text><circle class="cls-1" cx="703.42" cy="187.5" r="128.4"/><circle class="cls-2" cx="703.42" cy="187.5" r="137.25"/><text id="SMALL_12_6.99-3" data-name="SMALL 12”  $6.99" class="cls-6" transform="translate(646.72 136.5)">LA<tspan class="cls-7" x="44.59" y="0">R</tspan><tspan x="66.72" y="0">GE</tspan><tspan x="25.89" y="48">16”</tspan><tspan class="cls-4"><tspan x="13.19" y="141.6">$12.99</tspan><tspan class="cls-5" x="93.59" y="141.6"> </tspan></tspan></text><circle class="cls-1" cx="1073.88" cy="163.12" r="151.2"/><circle class="cls-2" cx="1073.88" cy="163.12" r="161.62"/><text id="SMALL_12_6.99-4" data-name="SMALL 12”  $6.99" class="cls-6" transform="translate(954.58 122.98)">EXTRA LA<tspan class="cls-7" x="169.79" y="0">R</tspan><tspan x="191.91" y="0">GE</tspan><tspan x="88.49" y="48">20”</tspan><tspan class="cls-4"><tspan x="75.78" y="141.6">$16.99</tspan><tspan class="cls-5" x="156.19" y="141.6"> </tspan></tspan></text></svg>