<svg id="Layer_2" data-name="Layer 2" xmlns="http://www.w3.org/2000/svg" viewBox="0 0 1237 326.25"><defs><style>.cls-1{fill:#333;}.cls-2{fill:none;stroke:#333;stroke-miterlimit:10;stroke-width:3px;}.cls-3{fill:#fff;}</style></defs><circle class="cls-1" cx="94.5" cy="231.75" r="86.5"/><path class="cls-1" d="M94.5,145.75a86,86,0,1,1-86,86,86.1,86.1,0,0,1,86-86m0-1a87,87,0,1,0,87,87,87,87,0,0,0-87-87Z"/><circle class="cls-2" cx="94.5" cy="231.75" r="93"/><g id="SMALL_12_6.99" data-name="SMALL 12”  $6.99"><path class="cls-3" d="M61.18,176.33l-2.92,3.2a8,8,0,0,0-3.32-1.36,1.83,1.83,0,0,0-1.35.59,2,2,0,0,0-.56,1.4c0,1.07,1,2,2.92,2.79a20.54,20.54,0,0,1,3.24,1.65A5.9,5.9,0,0,1,61,186.65a5.63,5.63,0,0,1,.74,2.84,6.41,6.41,0,0,1-2.26,4.88,7.67,7.67,0,0,1-5.36,2.08c-2.26,0-4.49-1.07-6.69-3.19l3.09-3.6c1.38,1.42,2.68,2.14,3.88,2.14a2.31,2.31,0,0,0,1.63-.76,2.18,2.18,0,0,0,.78-1.58c0-1.13-1.2-2.14-3.6-3a11.63,11.63,0,0,1-2.92-1.41,5,5,0,0,1-1.46-1.91,6,6,0,0,1-.59-2.56,6.25,6.25,0,0,1,1.9-4.72,6.84,6.84,0,0,1,4.94-1.81A8.6,8.6,0,0,1,61.18,176.33Z"/><path class="cls-3" d="M66.7,174.35h5.58l4.08,13.07,4.09-13.07h5.38l2.81,21.8H84.16l-1.92-15.34-4.8,15.34H75.31l-4.92-15.47-1.82,15.47H64Z"/><path class="cls-3" d="M99.63,174.35h3.64l8.88,21.8h-4.73l-1.75-4.29H97.31l-1.71,4.29H90.9Zm1.82,7.14-2.56,6.42h5.17Z"/><path class="cls-3" d="M115.55,174.35h4.67v17.1h6.42v4.7H115.55Z"/><path class="cls-3" d="M130.06,174.35h4.67v17.1h6.42v4.7H130.06Z"/><path class="cls-3" d="M72.73,215.8h6.89V237H75v-17.3H71.91Z"/><path class="cls-3" d="M96.78,233h6V237H88l7.23-9.18a22.68,22.68,0,0,0,2.24-3.32,5.31,5.31,0,0,0,.68-2.43,2.7,2.7,0,0,0-.81-2,2.77,2.77,0,0,0-2-.8,2.22,2.22,0,0,0-2,1,6.74,6.74,0,0,0-.76,3.14h-4.7a7.67,7.67,0,0,1,2.26-6,8,8,0,0,1,5.62-2.11,7.26,7.26,0,0,1,5.1,1.82,6,6,0,0,1,2,4.66,11.16,11.16,0,0,1-2.31,6.14l-1.26,1.84c-.5.74-1.13,1.59-1.9,2.54Z"/><path class="cls-3" d="M106.25,215.15h4.81v4.39a8.49,8.49,0,0,1-2.34,5.39l-1.94-1.33a5.93,5.93,0,0,0,1.21-1.73,4.5,4.5,0,0,0,.53-1.57V220h-2.27Zm8.08,0h4.88v4.57a8.43,8.43,0,0,1-2.31,5.21l-2-1.36a6,6,0,0,0,1.76-3.54h-2.34Z"/><path class="cls-3" d="M65.49,276.37h1.19v2a6.37,6.37,0,0,1,4.56,2.46l-1.87,1.48a3.59,3.59,0,0,0-2.69-1.52v4.64a8.54,8.54,0,0,1,4,2.87,5.73,5.73,0,0,1,1,2.95,4.82,4.82,0,0,1-1.31,3.35,5.45,5.45,0,0,1-3.68,1.66v2.55H65.49v-2.55a6.22,6.22,0,0,1-3.26-1.49,8.89,8.89,0,0,1-2-3.1l2.37-.62a6,6,0,0,0,1.23,1.87,3.41,3.41,0,0,0,1.7.79v-6.12q-4.27-1.65-4.27-4.92a3.85,3.85,0,0,1,1.14-2.75,5.45,5.45,0,0,1,3.13-1.55Zm0,8.55v-4a2.64,2.64,0,0,0-1.4.68,1.58,1.58,0,0,0-.5,1.15C63.59,283.65,64.22,284.39,65.49,284.92Zm1.19,3.22v5.71a3.14,3.14,0,0,0,1.89-.85,2.44,2.44,0,0,0,.66-1.75C69.23,290,68.38,288.92,66.68,288.14Z"/><path class="cls-3" d="M81.76,278l1.74,1.21-3.69,5.4a6,6,0,0,1,.65-.06l.49,0a5.88,5.88,0,0,1,4.13,1.67,5.17,5.17,0,0,1,1.78,3.87,6.06,6.06,0,0,1-1.77,4.4,5.79,5.79,0,0,1-4.31,1.8,6,6,0,0,1-4.35-1.77,5.79,5.79,0,0,1-1.8-4.28,6.09,6.09,0,0,1,1.13-3.56Zm2.7,12.14a3.65,3.65,0,0,0-1.1-2.64,3.53,3.53,0,0,0-2.6-1.11,3.59,3.59,0,0,0-2.63,1.12A3.66,3.66,0,0,0,77,290.18a3.56,3.56,0,0,0,1.09,2.63,3.64,3.64,0,0,0,2.66,1.08,3.69,3.69,0,0,0,3.7-3.71Z"/><path class="cls-3" d="M89.37,294.21a1.71,1.71,0,0,1,.52-1.26,1.68,1.68,0,0,1,1.26-.52,1.78,1.78,0,0,1,1.77,1.78A1.79,1.79,0,0,1,91.15,296a1.72,1.72,0,0,1-1.26-.52A1.68,1.68,0,0,1,89.37,294.21Z"/><path class="cls-3" d="M100.64,296.62l-1.8-1.26,3.71-5.36a9.94,9.94,0,0,1-1.19.11,5.71,5.71,0,0,1-4.18-1.69,5.8,5.8,0,0,1,.15-8.31,6,6,0,0,1,4.3-1.78,5.86,5.86,0,0,1,4.25,1.82,5.76,5.76,0,0,1,1.82,4.21,6.49,6.49,0,0,1-1.24,3.74Zm4.69-12.1a3.66,3.66,0,0,0-1.09-2.67,3.51,3.51,0,0,0-2.61-1.12,3.62,3.62,0,0,0-2.69,1.1,3.77,3.77,0,0,0-1.08,2.74A3.43,3.43,0,0,0,99,287.15a3.94,3.94,0,0,0,2.77,1.07,3.41,3.41,0,0,0,2.53-1.07A3.66,3.66,0,0,0,105.33,284.52Z"/><path class="cls-3" d="M115.53,296.62l-1.79-1.26,3.7-5.36a9.82,9.82,0,0,1-1.18.11,5.69,5.69,0,0,1-4.18-1.69,5.78,5.78,0,0,1,.15-8.31,6,6,0,0,1,4.29-1.78,5.83,5.83,0,0,1,4.25,1.82,5.73,5.73,0,0,1,1.83,4.21,6.49,6.49,0,0,1-1.24,3.74Zm4.7-12.1a3.67,3.67,0,0,0-1.1-2.67,3.51,3.51,0,0,0-2.61-1.12,3.63,3.63,0,0,0-2.69,1.1,3.77,3.77,0,0,0-1.08,2.74,3.44,3.44,0,0,0,1.15,2.58,3.93,3.93,0,0,0,2.77,1.07,3.39,3.39,0,0,0,2.52-1.07A3.67,3.67,0,0,0,120.23,284.52Z"/></g><circle class="cls-1" cx="374.96" cy="205.25" r="111.29" transform="translate(-35.31 325.25) rotate(-45)"/><path class="cls-1" d="M375,94.46a110.79,110.79,0,1,1-78.34,32.45A110.06,110.06,0,0,1,375,94.46m0-1A111.79,111.79,0,1,0,486.75,205.25,111.79,111.79,0,0,0,375,93.46Z"/><circle class="cls-2" cx="374.96" cy="205.25" r="119.5"/><g id="SMALL_12_6.99-2" data-name="SMALL 12”  $6.99"><path class="cls-3" d="M317.66,143.85h5.58l4.09,13.07,4.08-13.07h5.39l2.8,21.8h-4.47l-1.92-15.34-4.8,15.34h-2.14l-4.92-15.47-1.82,15.47H315Z"/><path class="cls-3" d="M343.06,143.85h12.27v4.32h-7.57v4.4h7.57v4.25h-7.57v4.51h7.57v4.32H343.06Z"/><path class="cls-3" d="M359.21,143.85h7.44a10.19,10.19,0,0,1,7.67,3,10.92,10.92,0,0,1,2.9,7.92,10.63,10.63,0,0,1-3,7.91,10.85,10.85,0,0,1-8,3h-7Zm4.73,4.12v13.46h1.86a7,7,0,0,0,4.75-1.58q1.86-1.57,1.86-5.26a7.78,7.78,0,0,0-.9-3.79,4.56,4.56,0,0,0-2.59-2.24,9.78,9.78,0,0,0-3.25-.59Z"/><path class="cls-3" d="M380.66,143.85h4.7v21.8h-4.7Z"/><path class="cls-3" d="M389.73,143.85h4.63v13.33a4.25,4.25,0,0,0,1,3,3.47,3.47,0,0,0,2.7,1.13,3.88,3.88,0,0,0,3-1.14,4.52,4.52,0,0,0,1.06-3.21v-13.1h4.62V158a8.89,8.89,0,0,1-1,3.86,6.62,6.62,0,0,1-3,3.06,9.34,9.34,0,0,1-4.47,1.07c-3,0-5.18-.84-6.56-2.5a8.15,8.15,0,0,1-2.07-5.26Z"/><path class="cls-3" d="M412.87,143.85h5.58l4.09,13.07,4.08-13.07H432l2.8,21.8h-4.47l-1.92-15.34-4.8,15.34h-2.14l-4.92-15.47-1.82,15.47h-4.55Z"/><path class="cls-3" d="M353.19,185.3h6.88v21.15h-4.64v-17.3h-3.06Z"/><path class="cls-3" d="M377,185.26h4.28V197.5h2v3.88h-2v5.07h-4.65v-5.07h-9.41v-3.91Zm-.43,5.32-5.46,6.92h5.52v-6.92Z"/><path class="cls-3" d="M386.7,184.65h4.82V189a8.49,8.49,0,0,1-2.34,5.39l-1.95-1.33a5.76,5.76,0,0,0,1.22-1.73,4.5,4.5,0,0,0,.53-1.57v-.27H386.7Zm8.09,0h4.88v4.57a8.43,8.43,0,0,1-2.31,5.21l-2-1.36a6,6,0,0,0,1.76-3.54h-2.34Z"/><path class="cls-3" d="M346,263.87h1.18v2a6.42,6.42,0,0,1,4.57,2.46l-1.88,1.48a3.55,3.55,0,0,0-2.69-1.52V273a8.44,8.44,0,0,1,4,2.87,5.66,5.66,0,0,1,1,2.95,4.86,4.86,0,0,1-1.31,3.35,5.47,5.47,0,0,1-3.69,1.66v2.55H346v-2.55a6.29,6.29,0,0,1-3.27-1.49,9,9,0,0,1-2-3.1l2.37-.62a6,6,0,0,0,1.23,1.87,3.41,3.41,0,0,0,1.7.79v-6.12q-4.27-1.65-4.27-4.92a3.85,3.85,0,0,1,1.14-2.75,5.45,5.45,0,0,1,3.13-1.55Zm0,8.55v-4a2.67,2.67,0,0,0-1.41.68,1.57,1.57,0,0,0-.49,1.15C344.05,271.15,344.68,271.89,346,272.42Zm1.18,3.22v5.71a3.14,3.14,0,0,0,1.9-.85,2.44,2.44,0,0,0,.66-1.75C349.69,277.46,348.84,276.42,347.13,275.64Z"/><path class="cls-3" d="M360.28,284.12l-1.8-1.26,3.71-5.36a9.94,9.94,0,0,1-1.19.11,5.71,5.71,0,0,1-4.18-1.69,5.79,5.79,0,0,1,.16-8.31,6,6,0,0,1,4.29-1.78,5.86,5.86,0,0,1,4.25,1.82,5.72,5.72,0,0,1,1.82,4.21,6.55,6.55,0,0,1-1.23,3.74ZM365,272a3.66,3.66,0,0,0-1.09-2.67,3.51,3.51,0,0,0-2.61-1.12,3.62,3.62,0,0,0-2.69,1.1,3.77,3.77,0,0,0-1.08,2.74,3.43,3.43,0,0,0,1.14,2.58,3.94,3.94,0,0,0,2.77,1.07,3.39,3.39,0,0,0,2.53-1.07A3.66,3.66,0,0,0,365,272Z"/><path class="cls-3" d="M369.82,281.71a1.75,1.75,0,0,1,.52-1.26,1.78,1.78,0,0,1,3,1.26,1.68,1.68,0,0,1-.52,1.25,1.71,1.71,0,0,1-1.26.53,1.75,1.75,0,0,1-1.26-.52A1.72,1.72,0,0,1,369.82,281.71Z"/><path class="cls-3" d="M381.1,284.12l-1.8-1.26,3.7-5.36a9.64,9.64,0,0,1-1.18.11,5.69,5.69,0,0,1-4.18-1.69,5.78,5.78,0,0,1,.15-8.31,6,6,0,0,1,4.29-1.78,5.87,5.87,0,0,1,4.26,1.82,5.76,5.76,0,0,1,1.82,4.21,6.49,6.49,0,0,1-1.24,3.74Zm4.69-12.1a3.67,3.67,0,0,0-1.1-2.67,3.51,3.51,0,0,0-2.61-1.12,3.65,3.65,0,0,0-2.69,1.1,3.77,3.77,0,0,0-1.08,2.74,3.44,3.44,0,0,0,1.15,2.58,3.94,3.94,0,0,0,2.77,1.07,3.39,3.39,0,0,0,2.52-1.07A3.67,3.67,0,0,0,385.79,272Z"/><path class="cls-3" d="M396,284.12l-1.79-1.26,3.7-5.36a9.82,9.82,0,0,1-1.18.11,5.68,5.68,0,0,1-4.18-1.69,5.78,5.78,0,0,1,.15-8.31,6,6,0,0,1,4.29-1.78,5.83,5.83,0,0,1,4.25,1.82,5.73,5.73,0,0,1,1.83,4.21,6.49,6.49,0,0,1-1.24,3.74Zm4.7-12.1a3.67,3.67,0,0,0-1.1-2.67,3.51,3.51,0,0,0-2.61-1.12,3.63,3.63,0,0,0-2.69,1.1,3.77,3.77,0,0,0-1.08,2.74,3.41,3.41,0,0,0,1.15,2.58,3.93,3.93,0,0,0,2.77,1.07,3.39,3.39,0,0,0,2.52-1.07A3.67,3.67,0,0,0,400.69,272Z"/></g><circle class="cls-1" cx="703.42" cy="187.5" r="127.89" transform="translate(261 765.62) rotate(-67.5)"/><path class="cls-1" d="M703.42,60.1a127.4,127.4,0,1,1-90.09,37.32A126.56,126.56,0,0,1,703.42,60.1m0-1A128.4,128.4,0,1,0,831.81,187.5,128.4,128.4,0,0,0,703.42,59.1Z"/><circle class="cls-2" cx="703.42" cy="187.5" r="137.25"/><g id="SMALL_12_6.99-3" data-name="SMALL 12”  $6.99"><path class="cls-3" d="M649.43,110.85h5.49V131h7.56v5.53H649.43Z"/><path class="cls-3" d="M675.29,110.85h4.28L690,136.5h-5.56l-2.06-5h-9.84l-2,5H665Zm2.14,8.4-3,7.56h6.09Z"/><path class="cls-3" d="M693.85,110.85h8.44a8.73,8.73,0,0,1,6.09,2,7,7,0,0,1,2.24,5.49,9.49,9.49,0,0,1-1,4.1,7.18,7.18,0,0,1-3.79,3.34L713,136.5h-6.35L700,126.58h-.63v9.92h-5.52Zm5.56,4.57v6.68h1.2q4.33,0,4.33-3.53a2.74,2.74,0,0,0-1.13-2.3,5.12,5.12,0,0,0-3.12-.85Z"/><path class="cls-3" d="M737.83,116.42l-3.67,3.44a8,8,0,0,0-2.85-3,7,7,0,0,0-8.78,1.3,7.47,7.47,0,0,0-2.22,5.39,7.73,7.73,0,0,0,2.22,5.59,7.17,7.17,0,0,0,5.34,2.3,6.77,6.77,0,0,0,3.27-.86,6.07,6.07,0,0,0,2.53-3.22H727.6v-5h11.83v3.32a11.95,11.95,0,0,1-6.38,9.79,13.41,13.41,0,0,1-5.8,1.36,11.86,11.86,0,0,1-9-3.85,13.24,13.24,0,0,1-3.65-9.51,12.58,12.58,0,0,1,3.76-9.18,12.24,12.24,0,0,1,9.05-3.81A11.51,11.51,0,0,1,737.83,116.42Z"/><path class="cls-3" d="M743.59,110.85H758v5.08h-8.91v5.18H758v5h-8.91v5.31H758v5.08H743.59Z"/><path class="cls-3" d="M677.8,159.61h8.11V184.5h-5.47V164.15h-3.6Z"/><path class="cls-3" d="M703.15,159.58h6.56L703.55,168a13.45,13.45,0,0,1,2.31-.23,7.5,7.5,0,0,1,5.56,2.4,7.92,7.92,0,0,1,2.34,5.72,8.33,8.33,0,0,1-2.76,6.41,9.89,9.89,0,0,1-7,2.54,8.85,8.85,0,0,1-6.45-2.49A8.48,8.48,0,0,1,695,176a14.08,14.08,0,0,1,1.27-5.68,27.87,27.87,0,0,1,2.81-5.08Zm4.93,16.26A4,4,0,0,0,707,173a3.48,3.48,0,0,0-2.65-1.15,3.91,3.91,0,0,0-2.87,1.17,4,4,0,0,0,0,5.65,3.92,3.92,0,0,0,2.88,1.15,3.46,3.46,0,0,0,2.63-1.18A4,4,0,0,0,708.08,175.84Z"/><path class="cls-3" d="M717.24,158.85h5.66V164a10,10,0,0,1-2.75,6.34l-2.29-1.57a6.73,6.73,0,0,0,1.43-2,5.24,5.24,0,0,0,.62-1.84v-.31h-2.67Zm9.51,0h5.74v5.38c0,1.89-.91,3.94-2.72,6.13l-2.34-1.6a7,7,0,0,0,2.07-4.16h-2.75Z"/><path class="cls-3" d="M667,258.72h1.18v2a6.46,6.46,0,0,1,4.57,2.47l-1.88,1.48a3.55,3.55,0,0,0-2.69-1.52v4.64a8.44,8.44,0,0,1,4,2.87,5.66,5.66,0,0,1,1,2.95,4.86,4.86,0,0,1-1.31,3.35,5.42,5.42,0,0,1-3.69,1.65v2.56H667v-2.56a6.29,6.29,0,0,1-3.27-1.48,9,9,0,0,1-2-3.1l2.37-.62a5.85,5.85,0,0,0,1.23,1.87,3.41,3.41,0,0,0,1.7.79V270q-4.28-1.65-4.27-4.92a3.85,3.85,0,0,1,1.14-2.75,5.52,5.52,0,0,1,3.13-1.56Zm0,8.55v-4a2.67,2.67,0,0,0-1.41.68,1.57,1.57,0,0,0-.49,1.15C665.06,266,665.69,266.74,667,267.27Zm1.18,3.21v5.72a3.14,3.14,0,0,0,1.9-.85,2.44,2.44,0,0,0,.66-1.75C670.7,272.31,669.85,271.27,668.14,270.48Z"/><path class="cls-3" d="M679.07,261.35h4.37V278.1h-2.27V263.57h-2.86Z"/><path class="cls-3" d="M696.21,275.86h6.4v2.24H691.14l8.55-9.1a3.38,3.38,0,0,0,1-2.32,3.65,3.65,0,0,0-1-2.58,3.16,3.16,0,0,0-2.39-1.1,3.54,3.54,0,0,0-2.13.73,3.47,3.47,0,0,0-1.29,2.24h-2.22a5.84,5.84,0,0,1,2-3.86,5.72,5.72,0,0,1,3.83-1.38,5.09,5.09,0,0,1,3.83,1.74,5.81,5.81,0,0,1,1.64,4.11,5.35,5.35,0,0,1-.41,2.1,7.72,7.72,0,0,1-1.47,2.08Z"/><path class="cls-3" d="M705.73,276.56a1.78,1.78,0,0,1,3.56,0,1.68,1.68,0,0,1-.52,1.25,1.71,1.71,0,0,1-1.26.52,1.74,1.74,0,0,1-1.26-.51A1.68,1.68,0,0,1,705.73,276.56Z"/><path class="cls-3" d="M717,279l-1.79-1.26,3.7-5.36a9.77,9.77,0,0,1-1.19.11,5.67,5.67,0,0,1-4.17-1.69,5.78,5.78,0,0,1,.15-8.31,6,6,0,0,1,4.29-1.78,5.83,5.83,0,0,1,4.25,1.82,5.73,5.73,0,0,1,1.83,4.21,6.49,6.49,0,0,1-1.24,3.74Zm4.7-12.1a3.67,3.67,0,0,0-1.1-2.67,3.51,3.51,0,0,0-2.61-1.12,3.63,3.63,0,0,0-2.69,1.1,3.77,3.77,0,0,0-1.08,2.74,3.41,3.41,0,0,0,1.15,2.58,3.91,3.91,0,0,0,2.77,1.07,3.39,3.39,0,0,0,2.52-1.07A3.67,3.67,0,0,0,721.7,266.87Z"/><path class="cls-3" d="M731.9,279l-1.79-1.26,3.7-5.36a9.94,9.94,0,0,1-1.19.11,5.71,5.71,0,0,1-4.18-1.69,5.79,5.79,0,0,1,.16-8.31,6,6,0,0,1,4.29-1.78,5.85,5.85,0,0,1,4.25,1.82,5.73,5.73,0,0,1,1.83,4.21,6.56,6.56,0,0,1-1.24,3.74Zm4.69-12.1a3.66,3.66,0,0,0-1.09-2.67,3.51,3.51,0,0,0-2.61-1.12,3.63,3.63,0,0,0-2.69,1.1,3.77,3.77,0,0,0-1.08,2.74,3.43,3.43,0,0,0,1.14,2.58,3.94,3.94,0,0,0,2.77,1.07,3.39,3.39,0,0,0,2.53-1.07A3.66,3.66,0,0,0,736.59,266.87Z"/></g><circle class="cls-1" cx="1073.88" cy="163.12" r="150.7"/><path class="cls-1" d="M1073.88,12.93a150.2,150.2,0,0,1,106.2,256.4A150.2,150.2,0,0,1,967.67,56.92a149.22,149.22,0,0,1,106.21-44m0-1a151.2,151.2,0,1,0,151.19,151.19A151.19,151.19,0,0,0,1073.88,11.93Z"/><circle class="cls-2" cx="1073.88" cy="163.12" r="161.62"/><g id="SMALL_12_6.99-4" data-name="SMALL 12”  $6.99"><path class="cls-3" d="M957.21,97.34h14.44v5.08h-8.91v5.17h8.91v5h-8.91v5.32h8.91V123H957.21Z"/><path class="cls-3" d="M975.3,97.34h5.87l5.16,7.84,5.33-7.84h5.71l-8.12,12.19L998.17,123h-5.71l-6.1-9.11L980.29,123h-5.83l9-13.43Z"/><path class="cls-3" d="M1000,97.34h17.24v5.45h-5.87V123h-5.53V102.79H1000Z"/><path class="cls-3" d="M1020.83,97.34h8.45a8.77,8.77,0,0,1,6.09,2,7,7,0,0,1,2.24,5.48,9.52,9.52,0,0,1-1,4.11,7.17,7.17,0,0,1-3.79,3.33L1040,123h-6.35l-6.64-9.92h-.62V123h-5.53Zm5.56,4.57v6.68h1.2q4.34,0,4.33-3.54a2.71,2.71,0,0,0-1.13-2.29,5.05,5.05,0,0,0-3.12-.85Z"/><path class="cls-3" d="M1053.11,97.34h4.28L1067.84,123h-5.56l-2.06-5h-9.84l-2,5h-5.53Zm2.14,8.4-3,7.56h6.09Z"/><path class="cls-3" d="M1082.49,97.34H1088v20.12h7.56V123h-13Z"/><path class="cls-3" d="M1108.34,97.34h4.29L1123.07,123h-5.56l-2-5h-9.84l-2,5h-5.54Zm2.15,8.4-3,7.56h6.1Z"/><path class="cls-3" d="M1126.9,97.34h8.45a8.73,8.73,0,0,1,6.09,2,7,7,0,0,1,2.24,5.48,9.38,9.38,0,0,1-1,4.11,7.11,7.11,0,0,1-3.78,3.33L1146,123h-6.35l-6.64-9.92h-.62V123h-5.53Zm5.57,4.57v6.68h1.2c2.88,0,4.33-1.18,4.33-3.54a2.73,2.73,0,0,0-1.13-2.29,5.06,5.06,0,0,0-3.13-.85Z"/><path class="cls-3" d="M1170.89,102.91l-3.68,3.43a7.88,7.88,0,0,0-2.85-3,7.05,7.05,0,0,0-8.78,1.3,7.52,7.52,0,0,0-2.21,5.39,7.79,7.79,0,0,0,2.21,5.6,7.16,7.16,0,0,0,5.35,2.29,6.76,6.76,0,0,0,3.27-.85,6.1,6.1,0,0,0,2.53-3.23h-6.08v-5h11.84v3.32a10.84,10.84,0,0,1-1.76,5.5,10.64,10.64,0,0,1-4.63,4.3,13.52,13.52,0,0,1-5.8,1.36,11.88,11.88,0,0,1-9-3.85,13.28,13.28,0,0,1-3.66-9.51,12.62,12.62,0,0,1,3.76-9.18A12.28,12.28,0,0,1,1160.5,97,11.53,11.53,0,0,1,1170.89,102.91Z"/><path class="cls-3" d="M1176.65,97.34h14.43v5.08h-8.9v5.17h8.9v5h-8.9v5.32h8.9V123h-14.43Z"/><path class="cls-3" d="M1055.33,166.34h7.11V171H1045l8.49-10.8a27.86,27.86,0,0,0,2.65-3.9,6.22,6.22,0,0,0,.79-2.85,3.19,3.19,0,0,0-1-2.39,3.25,3.25,0,0,0-2.37-.94,2.6,2.6,0,0,0-2.38,1.19,8,8,0,0,0-.9,3.7h-5.53a9,9,0,0,1,2.66-7,9.33,9.33,0,0,1,6.62-2.48,8.54,8.54,0,0,1,6,2.13,7.13,7.13,0,0,1,2.32,5.48q0,3.27-2.72,7.23l-1.48,2.17c-.59.87-1.33,1.87-2.23,3Z"/><path class="cls-3" d="M1074.94,145.71a8.48,8.48,0,0,1,7.07,3.4q2.64,3.39,2.64,9.08,0,6.65-2.93,9.85a8.94,8.94,0,0,1-6.78,3.22,8.69,8.69,0,0,1-7.12-3.43,14,14,0,0,1-2.72-9q0-5.94,2.66-9.53a8.37,8.37,0,0,1,7-3.58Zm4.47,12.95a12.27,12.27,0,0,0-1.21-6,3.66,3.66,0,0,0-3.26-2.17,3.77,3.77,0,0,0-3.38,2.17,12.34,12.34,0,0,0-1.23,6,11,11,0,0,0,1.25,5.62,3.63,3.63,0,0,0,6.59,0A11.16,11.16,0,0,0,1079.41,158.66Z"/><path class="cls-3" d="M1087.69,145.34h5.67v5.16a10,10,0,0,1-2.76,6.34l-2.28-1.56a6.55,6.55,0,0,0,1.42-2,5.14,5.14,0,0,0,.63-1.85v-.31h-2.68Zm9.52,0H1103v5.38q0,2.84-2.72,6.12l-2.34-1.6a7,7,0,0,0,2.07-4.16h-2.75Z"/><path class="cls-3" d="M1037.42,245.2h1.18v2a6.42,6.42,0,0,1,4.56,2.47l-1.87,1.47a3.54,3.54,0,0,0-2.69-1.51v4.64a8.44,8.44,0,0,1,4,2.87,5.66,5.66,0,0,1,1,2.94,4.84,4.84,0,0,1-1.31,3.35,5.41,5.41,0,0,1-3.69,1.66v2.56h-1.18v-2.56a6.29,6.29,0,0,1-3.27-1.48,9,9,0,0,1-2-3.11l2.37-.62a5.8,5.8,0,0,0,1.22,1.88,3.53,3.53,0,0,0,1.71.79v-6.13q-4.28-1.65-4.28-4.92a3.87,3.87,0,0,1,1.14-2.75,5.61,5.61,0,0,1,3.14-1.55Zm0,8.56v-4a2.75,2.75,0,0,0-1.41.68,1.59,1.59,0,0,0-.49,1.16C1035.52,252.49,1036.15,253.22,1037.42,253.76Zm1.18,3.21v5.72a3,3,0,0,0,1.89-.86,2.38,2.38,0,0,0,.67-1.74C1041.16,258.79,1040.31,257.75,1038.6,257Z"/><path class="cls-3" d="M1049.53,247.84h4.37v16.74h-2.27V250.06h-2.86Z"/><path class="cls-3" d="M1068.58,246.88l1.75,1.21-3.69,5.39.64,0,.49,0a5.83,5.83,0,0,1,4.13,1.68,5.13,5.13,0,0,1,1.78,3.86,6.07,6.07,0,0,1-1.76,4.4,5.79,5.79,0,0,1-4.31,1.81,6,6,0,0,1-4.35-1.77,5.76,5.76,0,0,1-1.81-4.28,6.17,6.17,0,0,1,1.13-3.56Zm2.7,12.14a3.6,3.6,0,0,0-1.1-2.64,3.51,3.51,0,0,0-2.6-1.12,3.75,3.75,0,0,0-2.66,6.39,3.64,3.64,0,0,0,2.66,1.08,3.7,3.7,0,0,0,3.7-3.71Z"/><path class="cls-3" d="M1076.19,263a1.78,1.78,0,0,1,3.56,0,1.75,1.75,0,0,1-.52,1.26,1.71,1.71,0,0,1-1.26.52,1.74,1.74,0,0,1-1.26-.51A1.72,1.72,0,0,1,1076.19,263Z"/><path class="cls-3" d="M1087.46,265.45l-1.79-1.25,3.7-5.36a9.36,9.36,0,0,1-1.19.1,5.66,5.66,0,0,1-4.17-1.68,5.78,5.78,0,0,1,.15-8.31,5.94,5.94,0,0,1,4.29-1.78,5.84,5.84,0,0,1,4.25,1.81,5.75,5.75,0,0,1,1.83,4.21,6.59,6.59,0,0,1-1.24,3.75Zm4.69-12.1a3.66,3.66,0,0,0-1.09-2.67,3.54,3.54,0,0,0-2.61-1.11,3.63,3.63,0,0,0-2.69,1.1,3.73,3.73,0,0,0-1.08,2.73,3.38,3.38,0,0,0,1.15,2.58,3.87,3.87,0,0,0,2.76,1.08,3.36,3.36,0,0,0,2.53-1.08A3.63,3.63,0,0,0,1092.15,253.35Z"/><path class="cls-3" d="M1102.36,265.45l-1.8-1.25,3.71-5.36a9.5,9.5,0,0,1-1.19.1,5.7,5.7,0,0,1-4.18-1.68,5.79,5.79,0,0,1,.16-8.31,5.94,5.94,0,0,1,4.29-1.78,5.85,5.85,0,0,1,4.25,1.81,5.74,5.74,0,0,1,1.82,4.21,6.58,6.58,0,0,1-1.23,3.75Zm4.69-12.1a3.66,3.66,0,0,0-1.09-2.67,3.54,3.54,0,0,0-2.61-1.11,3.62,3.62,0,0,0-2.69,1.1,3.73,3.73,0,0,0-1.08,2.73,3.4,3.4,0,0,0,1.14,2.58,3.91,3.91,0,0,0,2.77,1.08A3.36,3.36,0,0,0,1106,256,3.63,3.63,0,0,0,1107.05,253.35Z"/></g></svg>